# xmcd
#
# Track frame offsets: 
#        150
#        16472
#        38148
#        59051
#        86535
#        121809
#        146505
#        170690
#        182750
#
# Disc length: 2640 seconds
#
# Revision: 0
# Processed by: cddbd v1.5.2PL0 Copyright (c) Steve Scherf et al.
# Submitted via: ExactAudioCopy v0.95b3
#
DISCID=790a4e09
DTITLE=Procol Harum  - Something Magic  FLAC
DYEAR=1900
DGENRE=
TTITLE0=Something Magic
TTITLE1=Skating On Thin Ice
TTITLE2=The Mark Of The Claw
TTITLE3=Strangers In Space
TTITLE4=The Worm and The Tree - Part One
TTITLE5=The Worm and The Tree - Part Two
TTITLE6=The Worm and The Tree - Part Three
TTITLE7=Wizard Man
TTITLE8=Backgammon
EXTD=
EXTT0=
EXTT1=
EXTT2=
EXTT3=
EXTT4=
EXTT5=
EXTT6=
EXTT7=
EXTT8=
PLAYORDER=
